<svg id="svg" version="1.1" xmlns="http://www.w3.org/2000/svg" xmlns:xlink="http://www.w3.org/1999/xlink" width="400" height="76.99805068226121" viewBox="0, 0, 400,76.99805068226121"><g id="svgg"><path id="path0" d="M73.182 0.375 C 73.104 0.581,72.797 1.263,72.501 1.890 L 71.962 3.030 72.606 3.702 C 72.960 4.072,73.616 4.722,74.062 5.146 C 74.509 5.570,75.901 6.929,77.156 8.167 C 78.410 9.404,82.132 13.051,85.426 16.272 C 88.721 19.492,91.981 22.680,92.671 23.355 C 93.362 24.031,96.249 26.833,99.087 29.583 C 101.925 32.333,104.998 35.316,105.915 36.211 L 107.583 37.839 106.750 38.619 C 105.747 39.558,98.404 46.643,94.340 50.591 C 92.732 52.154,90.523 54.291,89.431 55.341 C 88.339 56.391,86.832 57.850,86.084 58.583 C 85.335 59.317,83.198 61.379,81.336 63.167 C 76.354 67.947,71.595 72.687,71.267 73.195 C 70.931 73.715,71.051 74.313,71.799 75.833 L 72.250 76.750 81.917 76.787 L 91.583 76.824 98.583 69.888 C 102.433 66.073,106.230 62.318,107.019 61.543 L 108.455 60.135 114.103 65.690 C 117.209 68.745,121.035 72.509,122.605 74.055 L 125.460 76.865 142.688 76.796 C 163.491 76.713,161.635 77.011,161.657 73.750 C 161.668 71.964,161.594 71.854,157.881 68.208 L 154.783 65.167 146.266 65.167 L 137.750 65.166 136.167 63.650 C 135.296 62.817,133.908 61.494,133.083 60.711 C 130.336 58.105,121.965 49.760,121.367 49.032 L 120.777 48.313 123.183 45.948 C 125.978 43.201,129.060 40.322,130.246 39.349 C 131.353 38.440,131.459 38.113,130.889 37.365 C 130.114 36.350,126.103 32.442,121.858 28.565 L 121.132 27.903 122.301 26.743 C 122.944 26.105,126.841 22.227,130.962 18.125 L 138.453 10.667 146.199 10.667 L 153.946 10.667 154.771 9.875 C 156.607 8.115,160.289 4.673,160.875 4.169 C 161.672 3.485,161.690 3.631,160.486 1.072 C 160.310 0.700,160.167 0.306,160.167 0.197 C 160.167 0.047,156.073 0.000,142.823 0.000 L 125.478 0.000 117.397 8.042 C 112.952 12.465,109.291 16.106,109.260 16.134 C 109.229 16.162,105.529 12.544,101.039 8.093 L 92.874 0.000 83.099 0.000 L 73.325 0.000 73.182 0.375 " stroke="none" fill="#74dcdc" fill-rule="evenodd"></path><path id="path1" d="M10.750 0.165 C 9.283 0.234,7.730 0.347,7.299 0.417 L 6.515 0.543 6.308 1.480 C 6.066 2.582,6.048 8.985,6.285 9.749 C 6.410 10.152,6.567 10.275,7.095 10.387 C 8.919 10.773,50.051 10.671,50.442 10.280 C 51.096 9.626,51.054 1.293,50.393 0.667 C 49.844 0.147,19.406 -0.238,10.750 0.165 M182.500 0.150 C 179.461 0.316,179.448 0.338,179.445 5.249 C 179.443 9.343,179.607 10.243,180.388 10.418 C 180.679 10.483,193.127 10.571,208.051 10.613 L 235.186 10.690 235.135 6.053 L 235.083 1.416 234.680 1.013 C 233.759 0.093,234.452 0.117,208.417 0.080 C 195.217 0.061,183.554 0.093,182.500 0.150 M263.417 0.167 C 259.191 0.363,259.338 -0.103,259.335 13.125 L 259.333 20.833 265.333 20.833 L 271.333 20.833 271.333 15.762 L 271.333 10.691 292.208 10.617 C 303.690 10.577,313.283 10.489,313.526 10.422 C 314.624 10.120,314.791 0.875,313.707 0.410 C 312.877 0.054,270.271 -0.152,263.417 0.167 M339.083 0.156 C 335.945 0.452,336.269 -2.158,336.202 23.375 L 336.146 44.833 341.906 44.833 L 347.667 44.833 347.667 27.723 L 347.667 10.614 352.792 10.722 C 367.979 11.044,369.992 11.236,374.417 12.781 C 379.915 14.701,383.826 18.630,386.002 24.417 C 386.209 24.967,386.438 25.567,386.511 25.750 C 386.689 26.197,387.230 28.130,387.609 29.667 C 388.073 31.550,388.071 44.003,387.607 46.250 C 387.329 47.594,386.882 49.155,386.509 50.083 C 386.435 50.267,386.103 51.131,385.771 52.004 C 384.432 55.518,382.148 58.524,379.167 60.692 C 377.974 61.560,376.247 62.667,376.086 62.667 C 376.044 62.667,375.606 62.851,375.113 63.077 C 373.109 63.994,370.485 64.717,367.833 65.084 C 364.300 65.574,362.821 65.667,358.468 65.675 C 354.247 65.683,348.435 65.816,339.691 66.103 L 336.132 66.220 336.197 70.568 C 336.266 75.112,336.331 75.521,337.105 76.295 C 337.231 76.421,337.333 76.601,337.333 76.696 C 337.333 77.243,368.008 76.473,371.833 75.830 C 377.475 74.881,383.281 72.513,386.917 69.677 C 387.283 69.391,387.844 68.953,388.162 68.704 C 391.954 65.732,395.779 60.170,397.416 55.250 C 397.660 54.517,397.928 53.767,398.010 53.583 C 399.449 50.396,400.475 38.386,399.834 32.250 C 399.487 28.930,398.526 23.800,398.023 22.583 C 397.947 22.400,397.675 21.613,397.418 20.833 C 396.498 18.040,395.064 15.175,393.647 13.293 C 391.479 10.416,387.196 5.960,386.407 5.762 C 386.187 5.707,385.612 5.428,385.128 5.142 C 380.605 2.463,376.877 1.207,371.833 0.664 C 370.962 0.570,369.575 0.413,368.750 0.315 C 366.980 0.105,341.098 -0.034,339.083 0.156 M222.000 26.641 L 222.000 31.449 204.502 31.570 C 194.878 31.636,185.965 31.752,184.694 31.826 C 181.054 32.039,181.085 31.994,181.084 36.917 C 181.083 40.901,181.237 41.753,181.982 41.907 C 183.710 42.265,187.048 42.331,203.691 42.332 L 221.966 42.333 222.051 47.042 C 222.098 49.631,222.188 51.948,222.251 52.191 C 222.413 52.814,222.616 52.833,228.938 52.833 L 234.500 52.833 234.500 37.333 L 234.500 21.833 228.250 21.833 L 222.000 21.833 222.000 26.641 M16.750 31.684 C 2.442 31.817,3.546 31.566,3.270 34.756 C 3.102 36.699,3.307 41.529,3.568 41.791 C 4.190 42.416,49.376 42.518,52.520 41.902 C 53.657 41.679,53.698 33.380,52.568 32.319 C 51.875 31.668,40.370 31.464,16.750 31.684 M273.500 31.689 C 259.337 31.818,259.964 31.722,259.560 33.809 C 259.179 35.776,259.419 41.308,259.906 41.795 C 260.607 42.496,310.586 42.517,311.436 41.816 C 312.366 41.050,312.164 32.470,311.207 32.084 C 310.297 31.717,291.777 31.522,273.500 31.689 M259.389 63.375 C 259.484 73.895,259.546 74.807,260.246 76.042 L 260.695 76.833 287.658 76.833 L 314.621 76.833 315.361 76.042 C 316.424 74.904,316.547 74.308,316.462 70.727 C 316.382 67.328,316.206 66.562,315.417 66.177 C 314.546 65.753,311.596 65.692,291.208 65.679 L 271.333 65.667 271.333 59.583 L 271.333 53.500 265.317 53.500 L 259.301 53.500 259.389 63.375 M3.750 65.837 C 0.000 66.033,0.101 65.901,0.030 70.718 C -0.029 74.757,0.012 74.957,1.193 76.254 L 1.720 76.833 28.636 76.833 L 55.552 76.833 56.191 76.161 C 57.310 74.985,57.333 74.884,57.333 71.205 C 57.333 66.036,57.327 66.027,53.500 65.820 C 50.577 65.662,6.812 65.677,3.750 65.837 M181.250 65.842 C 177.436 66.049,177.491 65.978,177.488 70.801 C 177.486 74.970,177.513 75.081,178.823 76.458 L 179.180 76.833 206.287 76.833 L 233.395 76.833 234.171 76.028 C 235.162 75.000,235.167 74.969,235.167 69.896 L 235.167 65.667 209.292 65.695 C 195.060 65.711,182.442 65.777,181.250 65.842 " stroke="none" fill="#040404" fill-rule="evenodd"></path><path id="path2" d="" stroke="none" fill="#3ca8e0" fill-rule="evenodd"></path><path id="path3" d="" stroke="none" fill="#3c3874" fill-rule="evenodd"></path><path id="path4" d="" stroke="none" fill="#403804" fill-rule="evenodd"></path></g></svg>